<?xml version="1.0" encoding="UTF-8" standalone="no"?>
<!DOCTYPE svg PUBLIC "-//W3C//DTD SVG 1.1//EN" "http://www.w3.org/Graphics/SVG/1.1/DTD/svg11.dtd">
<!-- Generated by Microsoft Visio, SVG Export Download_File_Checksum_Integrity_Verifier.svg Page-1 -->
<svg xmlns="http://www.w3.org/2000/svg" xmlns:xlink="http://www.w3.org/1999/xlink" xmlns:ev="http://www.w3.org/2001/xml-events"
		xmlns:v="http://schemas.microsoft.com/visio/2003/SVGExtensions/" width="2.63194in" height="0.474123in"
		viewBox="0 0 189.5 34.1369" xml:space="preserve" color-interpolation-filters="sRGB" class="st7">
	<v:documentProperties v:langID="1033" v:viewMarkup="false"/>

	<style type="text/css">
	<![CDATA[
		.st1 {visibility:visible}
		.st2 {fill:#000000;fill-opacity:0.4;filter:url(#filter_2.6666667461395);stroke:#000000;stroke-linecap:round;stroke-linejoin:round;stroke-opacity:0.4}
		.st3 {fill:#0070c0;stroke:#0070c0;stroke-linecap:round;stroke-linejoin:round;stroke-width:1.5}
		.st4 {fill:#ffffff;font-family:Segoe UI Semibold;font-size:0.833336em}
		.st5 {fill:#000000;fill-opacity:0.4;filter:url(#filter_2.6666667461395);stroke:none;stroke-linecap:butt}
		.st6 {fill:#ffffff;stroke:none;stroke-linecap:butt;stroke-width:0.75}
		.st7 {fill:none;fill-rule:evenodd;font-size:12px;overflow:visible;stroke-linecap:square;stroke-miterlimit:3}
	]]>
	</style>

	<defs id="Filters">
		<filter id="filter_2.6666667461395">
			<feGaussianBlur stdDeviation="2.6666667461395"/>
		</filter>
	</defs>
	<g v:mID="0" v:index="1" v:groupContext="foregroundPage">
		<title>Page-1</title>
		<v:pageProperties v:drawingScale="1" v:pageScale="1" v:drawingUnits="19" v:shadowOffsetX="9" v:shadowOffsetY="-9"/>
		<g id="group1158-1" transform="translate(2.62858,-6.87133)" v:mID="1158" v:groupContext="group">
			<title>Sheet.1158</title>
			<g id="shape1155-2" v:mID="1155" v:groupContext="shape">
				<title>Rounded Rectangle.1155</title>
				<desc>File Checksum Integrity Verifier</desc>
				<v:userDefs>
					<v:ud v:nameU="CTypeTopLeftSnip" v:prompt="" v:val="VT0(0):5"/>
					<v:ud v:nameU="CTypeTopRightSnip" v:prompt="" v:val="VT0(0):5"/>
					<v:ud v:nameU="CTypeBotLeftSnip" v:prompt="" v:val="VT0(0):5"/>
					<v:ud v:nameU="CTypeBotRightSnip" v:prompt="" v:val="VT0(0):5"/>
					<v:ud v:nameU="CornerLockHoriz" v:prompt="" v:val="VT0(1):5"/>
					<v:ud v:nameU="CornerLockVert" v:prompt="" v:val="VT0(1):5"/>
					<v:ud v:nameU="CornerLockDiag" v:prompt="" v:val="VT0(0):5"/>
					<v:ud v:nameU="TopLeftOffset" v:prompt="" v:val="VT0(0.15):1"/>
					<v:ud v:nameU="TopRightOffset" v:prompt="" v:val="VT0(0.15):1"/>
					<v:ud v:nameU="BotLeftOffset" v:prompt="" v:val="VT0(0.15):1"/>
					<v:ud v:nameU="BotRightOffset" v:prompt="" v:val="VT0(0.15):1"/>
					<v:ud v:nameU="visVersion" v:prompt="" v:val="VT0(15):26"/>
					<v:ud v:nameU="TopLeftOffset" v:prompt="" v:val="VT0(0.089285714285725):1"/>
					<v:ud v:nameU="TopRightOffset" v:prompt="" v:val="VT0(0.089285714285725):1"/>
					<v:ud v:nameU="BotLeftOffset" v:prompt="" v:val="VT0(0.089285714285725):1"/>
					<v:ud v:nameU="BotRightOffset" v:prompt="" v:val="VT0(0.089285714285725):1"/>
				</v:userDefs>
				<v:textBlock v:margins="rect(4,4,4,4)"/>
				<v:textRect cx="90" cy="21.8184" width="180" height="24.6369"/>
				<g id="shadow1155-3" v:groupContext="shadow" v:shadowOffsetX="2.12132" v:shadowOffsetY="-2.12132" v:shadowType="1"
						transform="matrix(1,0,0,1,2.12132,2.12132)" class="st1">
					<path d="M6.43 34.14 L173.57 34.14 A6.42847 6.42847 -180 0 0 180 27.71 L180 15.93 A6.42847 6.42847 -180 0 0 173.57
								 9.5 L6.43 9.5 A6.42847 6.42847 -180 0 0 -0 15.93 L0 27.71 A6.42847 6.42847 -180 0 0 6.43 34.14 Z"
							class="st2"/>
				</g>
				<path d="M6.43 34.14 L173.57 34.14 A6.42847 6.42847 -180 0 0 180 27.71 L180 15.93 A6.42847 6.42847 -180 0 0 173.57
							 9.5 L6.43 9.5 A6.42847 6.42847 -180 0 0 -0 15.93 L0 27.71 A6.42847 6.42847 -180 0 0 6.43 34.14 Z"
						class="st3"/>
				<text x="21.78" y="24.82" class="st4" v:langID="1033"><v:paragraph v:horizAlign="1"/><v:tabList/>File Checksum Integrity Verifier  </text>			</g>
			<g id="group1156-8" transform="translate(5.78786,-7.19448)" v:mID="1156" v:groupContext="group">
				<title>Sheet.1156</title>
				<g id="shape1157-9" v:mID="1157" v:groupContext="shape">
					<title>Sheet.1157</title>
					<g id="shadow1157-10" v:groupContext="shadow" v:shadowOffsetX="2.12132" v:shadowOffsetY="-2.12132"
							v:shadowType="1" transform="matrix(1,0,0,1,2.12132,2.12132)" class="st1">
						<path d="M8.92 29.56 C8.92 29.56 5.49 33.3 5.17 33.72 C4.82 34.14 4.26 33.83 4.26 33.83 C4.26 33.83 0.79
									 30.17 0.39 29.52 C0 28.92 0.75 28.8 0.75 28.8 L2.64 28.8 L2.64 24.27 C2.64 24.04 2.8 23.89 3.04
									 23.89 L6.2 23.89 C6.43 23.89 6.59 24.04 6.59 24.27 L6.59 28.8 L8.45 28.8 C9.39 28.8 8.92 29.56
									 8.92 29.56 Z" class="st5"/>
					</g>
					<path d="M8.92 29.56 C8.92 29.56 5.49 33.3 5.17 33.72 C4.82 34.14 4.26 33.83 4.26 33.83 C4.26 33.83 0.79 30.17
								 0.39 29.52 C0 28.92 0.75 28.8 0.75 28.8 L2.64 28.8 L2.64 24.27 C2.64 24.04 2.8 23.89 3.04 23.89
								 L6.2 23.89 C6.43 23.89 6.59 24.04 6.59 24.27 L6.59 28.8 L8.45 28.8 C9.39 28.8 8.92 29.56 8.92 29.56
								 Z" class="st6"/>
				</g>
			</g>
		</g>
	</g>
</svg>
